<?xml version="1.0" encoding="utf-8"?>
<!DOCTYPE svg PUBLIC "-//W3C//DTD SVG 20010904//EN" "http://www.w3.org/TR/2001/REC-SVG-20010904/DTD/svg10.dtd">
<svg version="1.0" xmlns="http://www.w3.org/2000/svg" width="26pt" height="26pt" viewBox="0 0 26 26" style="" preserveAspectRatio="xMidYMid meet">
<g fill="#464787FF" stroke="#464787FF">
<path d="M 16.085 13.262 C 13.764 15.427 12.150 17.484 12.499 17.832 C 12.848 18.181 14.622 16.674 16.442 14.483 C 21.035 8.954 20.964 8.711 16.085 13.262 "/></g>
<g fill="#A3A6DDFF" stroke="#A3A6DDFF">
<path d="M 16.279 12.369 L 13.058 15.403 10.279 12.980 L 7.500 10.556 10.282 13.528 L 13.065 16.500 16.282 12.918 L 19.500 9.336 16.279 12.369 "/></g>
<g fill="#464787FF" stroke="#464787FF">
<path d="M 7.795 12.285 C 9.558 14.366 11.000 15.688 11.000 15.222 C 11.000 14.756 9.558 13.052 7.795 11.437 L 4.590 8.500 7.795 12.285 "/></g>
<g fill="#777AAFFF" stroke="#777AAFFF">
<path d="M 19.000 11.924 L 16.500 14.566 19.000 11.924 L 21.500 9.282 19.000 11.924 "/></g>
<g fill="#777AAFFF" stroke="#777AAFFF">
<path d="M 7.000 12.000 L 10.000 15.000 7.000 12.000 L 4.000 9.000 7.000 12.000 "/></g>
<g fill="#C7CDE5FF" stroke="#C7CDE5FF">
<path d="M 19.000 12.924 L 16.500 15.566 19.000 12.924 L 21.500 10.282 19.000 12.924 "/></g>
<g fill="#C7CDE5FF" stroke="#C7CDE5FF">
<path d="M 7.000 13.000 L 10.000 16.000 7.000 13.000 L 4.000 10.000 7.000 13.000 "/></g>
</svg>
